<mxfile host="app.diagrams.net" modified="2023-07-28T19:39:21.114Z" agent="Mozilla/5.0 (Windows NT 10.0; Win64; x64; rv:109.0) Gecko/20100101 Firefox/115.0" etag="DSIZRYcjFkQvtKAOynMd" version="21.6.6" type="github">
  <diagram id="C5RBs43oDa-KdzZeNtuy" name="Page-1">
    <mxGraphModel dx="683" dy="364" grid="1" gridSize="10" guides="1" tooltips="1" connect="1" arrows="1" fold="1" page="1" pageScale="1" pageWidth="827" pageHeight="1169" math="0" shadow="0">
      <root>
        <mxCell id="WIyWlLk6GJQsqaUBKTNV-0" />
        <mxCell id="WIyWlLk6GJQsqaUBKTNV-1" parent="WIyWlLk6GJQsqaUBKTNV-0" />
        <mxCell id="mAxHpYJhDavJIdBwN0n5-0" value="Beam to Meson Primary" style="rounded=1;whiteSpace=wrap;html=1;fontSize=12;glass=0;strokeWidth=1;shadow=0;" vertex="1" parent="WIyWlLk6GJQsqaUBKTNV-1">
          <mxGeometry x="670" y="260" width="120" height="40" as="geometry" />
        </mxCell>
        <mxCell id="mAxHpYJhDavJIdBwN0n5-1" value="Beam to Neutrino-Muon" style="rounded=1;whiteSpace=wrap;html=1;fontSize=12;glass=0;strokeWidth=1;shadow=0;" vertex="1" parent="WIyWlLk6GJQsqaUBKTNV-1">
          <mxGeometry x="670" y="448" width="120" height="40" as="geometry" />
        </mxCell>
        <mxCell id="mAxHpYJhDavJIdBwN0n5-9" value="" style="edgeStyle=orthogonalEdgeStyle;rounded=0;orthogonalLoop=1;jettySize=auto;html=1;exitX=0.5;exitY=1;exitDx=0;exitDy=0;entryX=0.5;entryY=0;entryDx=0;entryDy=0;" edge="1" parent="WIyWlLk6GJQsqaUBKTNV-1" source="mAxHpYJhDavJIdBwN0n5-4" target="mAxHpYJhDavJIdBwN0n5-3">
          <mxGeometry relative="1" as="geometry">
            <mxPoint x="600" y="518" as="targetPoint" />
          </mxGeometry>
        </mxCell>
        <mxCell id="mAxHpYJhDavJIdBwN0n5-11" value="No" style="edgeLabel;html=1;align=center;verticalAlign=middle;resizable=0;points=[];" vertex="1" connectable="0" parent="mAxHpYJhDavJIdBwN0n5-9">
          <mxGeometry x="-0.4381" relative="1" as="geometry">
            <mxPoint x="10" y="4" as="offset" />
          </mxGeometry>
        </mxCell>
        <mxCell id="mAxHpYJhDavJIdBwN0n5-3" value="Beam to Switchyard Absorber" style="rounded=1;whiteSpace=wrap;html=1;fontSize=12;glass=0;strokeWidth=1;shadow=0;" vertex="1" parent="WIyWlLk6GJQsqaUBKTNV-1">
          <mxGeometry x="490" y="548" width="120" height="40" as="geometry" />
        </mxCell>
        <mxCell id="mAxHpYJhDavJIdBwN0n5-4" value="S:V100 on?" style="rhombus;whiteSpace=wrap;html=1;shadow=0;fontFamily=Helvetica;fontSize=12;align=center;strokeWidth=1;spacing=6;spacingTop=-4;" vertex="1" parent="WIyWlLk6GJQsqaUBKTNV-1">
          <mxGeometry x="500" y="428" width="100" height="80" as="geometry" />
        </mxCell>
        <mxCell id="mAxHpYJhDavJIdBwN0n5-12" value="" style="endArrow=classic;html=1;rounded=0;exitX=1;exitY=0.5;exitDx=0;exitDy=0;entryX=0;entryY=0.5;entryDx=0;entryDy=0;" edge="1" parent="WIyWlLk6GJQsqaUBKTNV-1" source="mAxHpYJhDavJIdBwN0n5-4" target="mAxHpYJhDavJIdBwN0n5-1">
          <mxGeometry width="50" height="50" relative="1" as="geometry">
            <mxPoint x="640" y="458" as="sourcePoint" />
            <mxPoint x="690" y="408" as="targetPoint" />
          </mxGeometry>
        </mxCell>
        <mxCell id="mAxHpYJhDavJIdBwN0n5-13" value="Yes" style="edgeLabel;html=1;align=center;verticalAlign=middle;resizable=0;points=[];" vertex="1" connectable="0" parent="mAxHpYJhDavJIdBwN0n5-12">
          <mxGeometry x="-0.0381" relative="1" as="geometry">
            <mxPoint x="-4" y="-10" as="offset" />
          </mxGeometry>
        </mxCell>
        <mxCell id="mAxHpYJhDavJIdBwN0n5-19" value="" style="edgeStyle=orthogonalEdgeStyle;rounded=0;orthogonalLoop=1;jettySize=auto;html=1;" edge="1" parent="WIyWlLk6GJQsqaUBKTNV-1" source="mAxHpYJhDavJIdBwN0n5-16" target="mAxHpYJhDavJIdBwN0n5-0">
          <mxGeometry relative="1" as="geometry" />
        </mxCell>
        <mxCell id="mAxHpYJhDavJIdBwN0n5-16" value="F:M01D on?" style="rhombus;whiteSpace=wrap;html=1;shadow=0;fontFamily=Helvetica;fontSize=12;align=center;strokeWidth=1;spacing=6;spacingTop=-4;" vertex="1" parent="WIyWlLk6GJQsqaUBKTNV-1">
          <mxGeometry x="500" y="240" width="100" height="80" as="geometry" />
        </mxCell>
        <mxCell id="mAxHpYJhDavJIdBwN0n5-20" value="Beam to Meson Absorber" style="rounded=1;whiteSpace=wrap;html=1;fontSize=12;glass=0;strokeWidth=1;shadow=0;" vertex="1" parent="WIyWlLk6GJQsqaUBKTNV-1">
          <mxGeometry x="490" y="350" width="120" height="40" as="geometry" />
        </mxCell>
        <mxCell id="mAxHpYJhDavJIdBwN0n5-21" value="" style="endArrow=classic;html=1;rounded=0;exitX=0.5;exitY=1;exitDx=0;exitDy=0;entryX=0.5;entryY=0;entryDx=0;entryDy=0;" edge="1" parent="WIyWlLk6GJQsqaUBKTNV-1" source="mAxHpYJhDavJIdBwN0n5-16" target="mAxHpYJhDavJIdBwN0n5-20">
          <mxGeometry width="50" height="50" relative="1" as="geometry">
            <mxPoint x="560" y="430" as="sourcePoint" />
            <mxPoint x="610" y="380" as="targetPoint" />
          </mxGeometry>
        </mxCell>
        <mxCell id="mAxHpYJhDavJIdBwN0n5-22" value="No" style="edgeLabel;html=1;align=center;verticalAlign=middle;resizable=0;points=[];" vertex="1" connectable="0" parent="mAxHpYJhDavJIdBwN0n5-21">
          <mxGeometry x="-0.4413" relative="1" as="geometry">
            <mxPoint x="10" as="offset" />
          </mxGeometry>
        </mxCell>
      </root>
    </mxGraphModel>
  </diagram>
</mxfile>
